<svg width="11" height="17" viewBox="0 0 11 17" fill="none" xmlns="http://www.w3.org/2000/svg">
<path d="M0.381062 16.664C0.127021 16.4401 0 16.1749 0 15.8685C0 15.5621 0.127021 15.2972 0.381062 15.0738L7.82447 8.5112L0.355658 1.92622C0.118552 1.71717 0 1.45586 0 1.14229C0 0.828722 0.127021 0.559947 0.381062 0.335968C0.635103 0.111989 0.935888 0 1.28342 0C1.63094 0 1.93139 0.111989 2.18475 0.335968L10.7205 7.88406C10.8222 7.97365 10.8943 8.07071 10.937 8.17523C10.9797 8.27975 11.0007 8.39174 11 8.5112C11 8.63065 10.9786 8.74264 10.936 8.84717C10.8933 8.95169 10.8215 9.04875 10.7205 9.13834L2.15935 16.6864C1.92224 16.8955 1.62993 17 1.2824 17C0.934871 17 0.634426 16.888 0.381062 16.664Z" fill="#292929"/>
</svg>
