<svg width="25" height="20" viewBox="0 0 25 20" fill="none" xmlns="http://www.w3.org/2000/svg">
<path d="M25 7.91488V8.60312C25 9.17328 24.5336 9.63548 23.9583 9.63548H23.6111L22.4777 17.4981C22.3311 18.5153 21.4521 19.2708 20.4154 19.2708H4.58464C3.54787 19.2708 2.66888 18.5153 2.52222 17.4981L1.38889 9.63548H1.04167C0.466363 9.63548 0 9.17328 0 8.60312V7.91488C0 7.34472 0.466363 6.88252 1.04167 6.88252H3.96445L8.599 0.567016C9.05017 -0.0477538 9.91875 -0.183724 10.5391 0.263417C11.1595 0.710557 11.2967 1.57142 10.8455 2.18623L7.39918 6.88252H17.6008L14.1545 2.18619C13.7033 1.57142 13.8405 0.710514 14.4609 0.263374C15.0812 -0.183767 15.9499 -0.0478398 16.401 0.566973L21.0355 6.88252H23.9583C24.5336 6.88252 25 7.34472 25 7.91488ZM13.5417 15.4855V10.6678C13.5417 10.0977 13.0753 9.63548 12.5 9.63548C11.9247 9.63548 11.4583 10.0977 11.4583 10.6678V15.4855C11.4583 16.0557 11.9247 16.5179 12.5 16.5179C13.0753 16.5179 13.5417 16.0557 13.5417 15.4855ZM18.4028 15.4855V10.6678C18.4028 10.0977 17.9364 9.63548 17.3611 9.63548C16.7858 9.63548 16.3194 10.0977 16.3194 10.6678V15.4855C16.3194 16.0557 16.7858 16.5179 17.3611 16.5179C17.9364 16.5179 18.4028 16.0557 18.4028 15.4855ZM8.68056 15.4855V10.6678C8.68056 10.0977 8.21419 9.63548 7.63889 9.63548C7.06358 9.63548 6.59722 10.0977 6.59722 10.6678V15.4855C6.59722 16.0557 7.06358 16.5179 7.63889 16.5179C8.21419 16.5179 8.68056 16.0557 8.68056 15.4855Z" fill="#FFCC16"/>
</svg>
