<svg width="22" height="26" viewBox="0 0 22 26" fill="none" xmlns="http://www.w3.org/2000/svg">
<path d="M4.82609 25C4.12464 25 3.52395 24.7387 3.024 24.216C2.52406 23.6933 2.27452 23.0658 2.27537 22.3333V5C1.91401 5 1.6109 4.872 1.36603 4.616C1.12116 4.36 0.999154 4.04356 1 3.66667C1 3.28889 1.12244 2.972 1.36731 2.716C1.61218 2.46 1.91486 2.33245 2.27537 2.33334H7.37681C7.37681 1.95556 7.49925 1.63867 7.74412 1.38267C7.98899 1.12667 8.29167 0.999116 8.65217 1H13.7536C14.115 1 14.4181 1.128 14.663 1.384C14.9078 1.64 15.0298 1.95645 15.029 2.33334H20.1304C20.4918 2.33334 20.7949 2.46134 21.0398 2.71734C21.2846 2.97334 21.4066 3.28978 21.4058 3.66667C21.4058 4.04445 21.2834 4.36134 21.0385 4.61734C20.7936 4.87334 20.4909 5.00089 20.1304 5V22.3333C20.1304 23.0667 19.8805 23.6947 19.3805 24.2173C18.8806 24.74 18.2803 25.0009 17.5797 25H4.82609ZM4.82609 5V22.3333H17.5797V5H4.82609ZM7.37681 18.3333C7.37681 18.7111 7.49925 19.028 7.74412 19.284C7.98899 19.54 8.29167 19.6676 8.65217 19.6667C9.01353 19.6667 9.31664 19.5387 9.56151 19.2827C9.80638 19.0267 9.92839 18.7102 9.92754 18.3333V9C9.92754 8.62222 9.8051 8.30533 9.56023 8.04934C9.31536 7.79334 9.01268 7.66578 8.65217 7.66667C8.29082 7.66667 7.98771 7.79467 7.74284 8.05067C7.49797 8.30667 7.37596 8.62311 7.37681 9V18.3333ZM12.4783 18.3333C12.4783 18.7111 12.6007 19.028 12.8456 19.284C13.0904 19.54 13.3931 19.6676 13.7536 19.6667C14.115 19.6667 14.4181 19.5387 14.663 19.2827C14.9078 19.0267 15.0298 18.7102 15.029 18.3333V9C15.029 8.62222 14.9065 8.30533 14.6617 8.04934C14.4168 7.79334 14.1141 7.66578 13.7536 7.66667C13.3923 7.66667 13.0892 7.79467 12.8443 8.05067C12.5994 8.30667 12.4774 8.62311 12.4783 9V18.3333Z" fill="#FFCC16" stroke="#292929"/>
</svg>
