<svg width="22" height="22" viewBox="0 0 22 22" fill="none" xmlns="http://www.w3.org/2000/svg">
<path d="M8 14L14 8" stroke="#FFCC16" stroke-width="1.5" stroke-linecap="round"/>
<path d="M14.5 13.5C14.5 13.7652 14.3946 14.0196 14.2071 14.2071C14.0196 14.3946 13.7652 14.5 13.5 14.5C13.2348 14.5 12.9804 14.3946 12.7929 14.2071C12.6054 14.0196 12.5 13.7652 12.5 13.5C12.5 13.2348 12.6054 12.9804 12.7929 12.7929C12.9804 12.6054 13.2348 12.5 13.5 12.5C13.7652 12.5 14.0196 12.6054 14.2071 12.7929C14.3946 12.9804 14.5 13.2348 14.5 13.5ZM9.5 8.5C9.5 8.76522 9.39464 9.01957 9.20711 9.20711C9.01957 9.39464 8.76522 9.5 8.5 9.5C8.23478 9.5 7.98043 9.39464 7.79289 9.20711C7.60536 9.01957 7.5 8.76522 7.5 8.5C7.5 8.23478 7.60536 7.98043 7.79289 7.79289C7.98043 7.60536 8.23478 7.5 8.5 7.5C8.76522 7.5 9.01957 7.60536 9.20711 7.79289C9.39464 7.98043 9.5 8.23478 9.5 8.5Z" fill="#FFCC16"/>
<path d="M21 11C21 15.714 21 18.071 19.535 19.535C18.072 21 15.714 21 11 21C6.286 21 3.929 21 2.464 19.535C1 18.072 1 15.714 1 11C1 6.286 1 3.929 2.464 2.464C3.93 1 6.286 1 11 1C15.714 1 18.071 1 19.535 2.464C20.509 3.438 20.835 4.807 20.945 7" stroke="#FFCC16" stroke-width="1.5" stroke-linecap="round"/>
</svg>
