<svg width="27" height="27" viewBox="0 0 27 27" fill="none" xmlns="http://www.w3.org/2000/svg">
<path d="M10.9372 0.520874H1.56217C0.986878 0.520874 0.520508 0.987244 0.520508 1.56254V10.9375C0.520508 11.5128 0.986878 11.9792 1.56217 11.9792H10.9372C11.5125 11.9792 11.9788 11.5128 11.9788 10.9375V1.56254C11.9788 0.987244 11.5125 0.520874 10.9372 0.520874Z" fill="#FFCC16"/>
<path d="M25.3952 0.520874H16.0202C15.4449 0.520874 14.9785 0.987244 14.9785 1.56254V10.9375C14.9785 11.5128 15.4449 11.9792 16.0202 11.9792H25.3952C25.9705 11.9792 26.4368 11.5128 26.4368 10.9375V1.56254C26.4368 0.987244 25.9705 0.520874 25.3952 0.520874Z" fill="#FFCC16"/>
<path d="M25.3952 14.9792H16.0202C15.4449 14.9792 14.9785 15.4456 14.9785 16.0209V25.3959C14.9785 25.9712 15.4449 26.4376 16.0202 26.4376H25.3952C25.9705 26.4376 26.4368 25.9712 26.4368 25.3959V16.0209C26.4368 15.4456 25.9705 14.9792 25.3952 14.9792Z" fill="#FFCC16"/>
<path d="M10.9372 14.9792H1.56217C0.986878 14.9792 0.520508 15.4456 0.520508 16.0209V25.3959C0.520508 25.9712 0.986878 26.4376 1.56217 26.4376H10.9372C11.5125 26.4376 11.9788 25.9712 11.9788 25.3959V16.0209C11.9788 15.4456 11.5125 14.9792 10.9372 14.9792Z" fill="#FFCC16"/>
</svg>
