<svg width="76" height="75" viewBox="0 0 76 75" fill="none" xmlns="http://www.w3.org/2000/svg">
<path d="M26.6858 7.56888C25.5618 4.9143 26.8307 1.82408 29.6591 1.11278C32.7635 0.33205 35.9666 -0.0428173 39.1856 0.00388263C44.1713 0.0762123 49.0886 1.15827 53.6318 3.18279C58.1751 5.2073 62.2472 8.13101 65.595 11.7722C68.9428 15.4133 71.4948 19.6941 73.0924 24.3484C74.6899 29.0028 75.2988 33.9311 74.8813 38.8272C74.4637 43.7232 73.0286 48.4823 70.6652 52.8086C68.3018 57.135 65.0606 60.936 61.143 63.9756C58.6136 65.9381 55.8372 67.556 52.8892 68.7924C50.2033 69.9188 47.2913 68.222 46.5493 65.4401L45.4617 61.3628C44.7197 58.5809 46.4566 55.7853 49.0144 54.3994C50.0444 53.8413 51.0287 53.1996 51.9569 52.4795C54.2745 50.6814 56.192 48.4327 57.5902 45.8732C58.9883 43.3138 59.8373 40.4984 60.0843 37.6019C60.3314 34.7054 59.9711 31.7898 59.026 29.0364C58.081 26.2829 56.5712 23.7504 54.5907 21.5963C52.6101 19.4422 50.2011 17.7126 47.5133 16.5149C44.8256 15.3172 41.9165 14.6771 38.967 14.6343C37.7858 14.6171 36.6083 14.6959 35.446 14.8685C32.5595 15.297 29.4571 14.1142 28.3331 11.4596L26.6858 7.56888Z" fill="#FFCC16"/>
<path d="M45.141 69.1255C45.703 71.9124 43.8921 74.6684 41.0172 74.888C33.5194 75.4606 26.0023 73.8313 19.4145 70.1421C11.3181 65.6081 5.17453 58.2702 2.12249 49.4887C-0.929544 40.7072 -0.68301 31.0777 2.8164 22.3851C5.64432 15.3605 10.4415 9.33275 16.5707 5.00289C18.976 3.30371 22.2421 4.3563 23.5677 6.96371L28.0745 15.8289C29.3639 18.365 28.2823 21.4083 26.2078 23.3749C24.3056 25.1782 22.7956 27.3814 21.8031 29.8467C20.1633 33.92 20.0478 38.4324 21.4779 42.5473C22.9081 46.6623 25.787 50.1008 29.5809 52.2254C31.8049 53.4708 34.2548 54.2153 36.7645 54.4339C39.7076 54.6903 42.583 56.4432 43.159 59.2988L45.141 69.1255Z" fill="white"/>
</svg>
