<svg width="19" height="18" viewBox="0 0 19 18" fill="none" xmlns="http://www.w3.org/2000/svg">
<path d="M16.3494 17.3L10.668 11.7C10.1608 12.1 9.57739 12.4167 8.91794 12.65C8.25849 12.8833 7.55676 13 6.81277 13C4.96969 13 3.41 12.3707 2.13371 11.112C0.857422 9.85333 0.218938 8.316 0.218262 6.5C0.218262 4.68333 0.856745 3.146 2.13371 1.888C3.41068 0.63 4.97037 0.000666667 6.81277 0C8.65585 0 10.2155 0.629333 11.4918 1.888C12.7681 3.14667 13.4066 4.684 13.4073 6.5C13.4073 7.23333 13.2889 7.925 13.0522 8.575C12.8155 9.225 12.4942 9.8 12.0884 10.3L17.7952 15.925C17.9812 16.1083 18.0742 16.3333 18.0742 16.6C18.0742 16.8667 17.9727 17.1 17.7698 17.3C17.5838 17.4833 17.3471 17.575 17.0596 17.575C16.7722 17.575 16.5354 17.4833 16.3494 17.3ZM6.81277 11C8.08094 11 9.15906 10.5623 10.0471 9.687C10.9352 8.81167 11.3789 7.74933 11.3782 6.5C11.3782 5.25 10.9342 4.18733 10.0461 3.312C9.15805 2.43667 8.08027 1.99933 6.81277 2C5.54459 2 4.46648 2.43767 3.57842 3.313C2.69036 4.18833 2.24666 5.25067 2.24734 6.5C2.24734 7.75 2.69137 8.81267 3.57943 9.688C4.46749 10.5633 5.54527 11.0007 6.81277 11Z" fill="#FFCC16"/>
</svg>
